<svg width="811" height="907" viewBox="0 0 811 907" fill="none" xmlns="http://www.w3.org/2000/svg">
<g clip-path="url(#clip0_255_9218)">
<path d="M197.83 97.57C201.457 77.6367 205.253 57.6934 209.22 37.74C209.3 37.3534 209.32 37.0834 209.28 36.93C209.259 36.8446 209.214 36.767 209.151 36.7063C209.087 36.6456 209.007 36.6044 208.921 36.5876C208.835 36.5708 208.746 36.579 208.664 36.6113C208.582 36.6437 208.511 36.6987 208.46 36.77C184.52 69.54 163.58 105.24 142.87 140.13C141.883 141.797 140.64 143.24 139.14 144.46C121.387 158.873 103.577 173.283 85.71 187.69C85.5442 187.824 85.425 188.007 85.3693 188.212C85.3136 188.416 85.3243 188.633 85.4 188.83L98.97 223.25C99.0364 223.418 99.0688 223.597 99.0654 223.777C99.062 223.957 99.0227 224.135 98.95 224.3C74.84 278.95 67.48 339.68 73.02 398.85C73.016 398.932 73.0448 399.013 73.1002 399.074C73.1555 399.135 73.2328 399.171 73.315 399.175C73.3972 399.179 73.4776 399.15 73.5386 399.095C73.5995 399.04 73.636 398.962 73.64 398.88C82.76 349.86 105.48 303.37 134.69 263.07C134.71 263.041 134.735 263.016 134.765 262.997C134.795 262.979 134.829 262.967 134.864 262.962C134.899 262.957 134.934 262.96 134.968 262.97C135.002 262.98 135.033 262.997 135.06 263.02C172.84 294.9 216.76 321.71 263.47 337.15C263.783 337.257 263.83 337.187 263.61 336.94C260.643 333.607 256.907 329.67 252.4 325.13C216.37 288.89 188.74 243.74 186.69 191.22C186.63 189.71 187.18 187.84 187.97 186.71C240.48 112.1 315.17 53.2 409.97 47.48C460.88 44.41 512.21 55.2 558.22 74.26C609.72 95.6067 657.173 124.637 700.58 161.35C700.833 161.563 700.847 161.547 700.62 161.3C686.14 145.453 669.953 129.837 652.06 114.45C593.86 64.4 522.85 30.32 446.18 24.58C358.6 18.03 269.58 46.99 198.1 97.74C198.072 97.7613 198.039 97.7735 198.004 97.7751C197.97 97.7768 197.935 97.7677 197.906 97.7492C197.876 97.7307 197.853 97.7036 197.84 97.6715C197.826 97.6395 197.823 97.6041 197.83 97.57Z" stroke="#F5D594" stroke-width="2"/>
<path d="M295.31 242.44C289.537 242.307 285.597 242.31 283.49 242.45C283.355 242.458 283.227 242.517 283.134 242.615C283.041 242.714 282.99 242.845 282.99 242.98V339.87C282.99 340.037 283.056 340.197 283.175 340.316C283.293 340.434 283.453 340.5 283.62 340.5H315.25C315.383 340.5 315.51 340.447 315.604 340.354C315.697 340.26 315.75 340.133 315.75 340V310.73C315.75 310.631 315.789 310.536 315.858 310.465C315.927 310.394 316.021 310.353 316.12 310.35C340.76 310.07 365.413 309.96 390.08 310.02C401.97 310.05 415.11 312.38 421.55 299.76C422.563 297.767 423.163 295.163 423.35 291.95C423.843 283.343 423.953 274.73 423.68 266.11C423.17 250.03 417.28 242.87 400.66 242.97C357.74 243.23 322.623 243.053 295.31 242.44Z" stroke="#F5D594" stroke-width="2"/>
<path d="M509.95 279.11L545.4 339.81C545.521 340.02 545.696 340.194 545.906 340.315C546.117 340.436 546.356 340.5 546.6 340.5H584.42C584.498 340.5 584.574 340.479 584.641 340.439C584.708 340.399 584.763 340.341 584.801 340.272C584.838 340.203 584.857 340.125 584.855 340.045C584.853 339.966 584.831 339.888 584.79 339.82L524.99 242.69C524.908 242.556 524.793 242.444 524.656 242.367C524.52 242.29 524.366 242.25 524.21 242.25H491.04C490.89 242.25 490.742 242.286 490.609 242.356C490.477 242.426 490.364 242.527 490.28 242.65C489.04 244.483 487.87 246.363 486.77 248.29C469.297 278.877 451.79 309.473 434.25 340.08C434.225 340.123 434.212 340.172 434.212 340.222C434.213 340.272 434.226 340.321 434.252 340.363C434.277 340.406 434.314 340.441 434.357 340.465C434.401 340.489 434.45 340.501 434.5 340.5L469.95 340.49C470.214 340.49 470.473 340.423 470.704 340.295C470.935 340.167 471.13 339.983 471.27 339.76L509.23 279.1C509.268 279.038 509.322 278.988 509.385 278.953C509.449 278.918 509.52 278.9 509.593 278.901C509.665 278.902 509.736 278.922 509.799 278.959C509.861 278.995 509.914 279.047 509.95 279.11Z" stroke="#F5D594" stroke-width="2"/>
<path d="M625.7 283.22L625.87 242.72C625.87 242.595 625.821 242.476 625.732 242.388C625.644 242.3 625.525 242.25 625.4 242.25H597.26C597.1 242.25 596.945 242.311 596.828 242.42C596.711 242.53 596.64 242.68 596.63 242.84C596.377 247.087 596.323 254.393 596.47 264.76C596.643 276.653 596.61 301.727 596.37 339.98C596.37 340.118 596.424 340.25 596.519 340.348C596.615 340.445 596.745 340.5 596.88 340.5H625.25C625.383 340.5 625.51 340.447 625.604 340.354C625.697 340.26 625.75 340.133 625.75 340V310.87C625.75 310.683 625.793 310.497 625.874 310.328C625.955 310.158 626.073 310.009 626.22 309.89L648.75 291.93C648.809 291.883 648.876 291.848 648.948 291.827C649.021 291.807 649.097 291.801 649.171 291.81C649.246 291.819 649.318 291.844 649.383 291.881C649.448 291.919 649.505 291.97 649.55 292.03L686.37 340.03C686.479 340.17 686.618 340.284 686.776 340.362C686.933 340.44 687.106 340.48 687.28 340.48L726.93 340.51C727.503 340.51 727.607 340.29 727.24 339.85L676.97 279.09C676.888 278.988 676.828 278.871 676.793 278.746C676.758 278.62 676.75 278.489 676.767 278.361C676.785 278.232 676.829 278.109 676.897 277.999C676.964 277.888 677.054 277.794 677.16 277.72L726.75 243.04C726.828 242.989 726.887 242.914 726.919 242.827C726.951 242.739 726.953 242.644 726.926 242.555C726.899 242.466 726.844 242.388 726.769 242.333C726.694 242.278 726.603 242.249 726.51 242.25H685.58C685.228 242.25 684.883 242.358 684.59 242.56L626.31 283.54C625.903 283.827 625.7 283.72 625.7 283.22Z" stroke="#F5D594" stroke-width="2"/>
<path d="M272.75 456.74C351.7 457.37 433.87 478.57 515.25 481.73C552.35 483.17 587.18 481.8 622.23 473.91C669.95 463.17 715.12 439.53 748.28 403.25C748.332 403.191 748.363 403.116 748.368 403.038C748.373 402.96 748.353 402.882 748.31 402.816C748.267 402.75 748.204 402.7 748.13 402.674C748.055 402.648 747.975 402.646 747.9 402.67C691.71 421.83 632.3 433.37 573 434.5C457.78 436.7 354.94 373.27 240 373.44C181.78 373.53 123.71 387.03 73.79 416.42C73.5972 416.534 73.4446 416.705 73.3532 416.907C73.2618 417.11 73.2362 417.334 73.28 417.55C79.78 449.737 90.57 480.397 105.65 509.53C105.713 509.653 105.801 509.762 105.909 509.849C106.017 509.936 106.142 510 106.276 510.036C106.409 510.071 106.549 510.079 106.686 510.057C106.823 510.036 106.954 509.985 107.07 509.91C156.05 477.95 213.92 456.27 272.75 456.74Z" stroke="#86CEEC" stroke-width="2"/>
<path d="M677.32 487.6C703.27 471.71 727.69 450.75 746.66 426.91C747.607 425.71 748.25 424.5 748.59 423.28C748.623 423.158 748.614 423.029 748.567 422.912C748.519 422.794 748.434 422.696 748.326 422.632C748.217 422.567 748.09 422.54 747.965 422.554C747.839 422.568 747.722 422.623 747.63 422.71C707.74 460.93 648.66 481.08 595.24 489.75C560.09 495.45 522.61 493.93 487.32 490.17C434.47 484.54 382.18 475.16 329.32 469.68C302.7 466.92 274.37 465.57 248.08 469.22C200.32 475.84 151.78 491.76 112.7 520.8C112.508 520.941 112.376 521.147 112.328 521.38C112.28 521.613 112.32 521.855 112.44 522.06C125.153 543.96 140.013 564.287 157.02 583.04C157.066 583.089 157.121 583.128 157.183 583.156C157.244 583.183 157.311 583.197 157.378 583.198C157.445 583.199 157.512 583.186 157.574 583.161C157.636 583.136 157.693 583.098 157.74 583.05C193.98 546.92 243.87 528.43 294.21 523.47C326.47 520.297 358.813 519.213 391.24 520.22C412.72 520.89 434.34 521.39 455.76 523.07C478.667 524.87 501.603 526.003 524.57 526.47C579.53 527.59 630.35 516.37 677.32 487.6Z" stroke="#80AED2" stroke-width="2"/>
<path d="M741.65 448.36C703.65 494.56 647.01 525.4 587.84 533.08C552.1 537.71 519.33 538.08 481.93 537.33C478.663 537.263 474.38 537.063 469.08 536.73C458.37 536.06 446.28 535.92 436.93 535.32C381.35 531.73 326.27 528.82 271.05 538.32C231.74 545.07 195.28 564.67 166.45 592.15C166.395 592.202 166.352 592.264 166.322 592.333C166.292 592.402 166.276 592.476 166.275 592.551C166.274 592.626 166.288 592.7 166.316 592.768C166.345 592.837 166.387 592.899 166.44 592.95C211.133 637.71 264.03 668.173 325.13 684.34C330.35 685.72 337.02 687.07 341.5 687.75C386.71 694.61 434.23 693.63 479.44 687.36C496.12 685.05 511.71 680.99 527.27 675.3C631.38 637.28 709.78 554.61 741.92 448.5C741.932 448.467 741.932 448.43 741.919 448.398C741.907 448.365 741.882 448.339 741.85 448.322C741.818 448.305 741.781 448.3 741.744 448.307C741.708 448.314 741.674 448.333 741.65 448.36Z" stroke="#80AED2" stroke-width="2"/>
<path d="M316.38 289.22C338.24 289.29 360.07 289.65 381.93 289.4C389.27 289.31 397.24 284.57 397.22 276.58C397.21 270.8 392.48 265.69 387.07 264.29C385.59 263.903 382.69 263.68 378.37 263.62C361.87 263.38 343.56 263.85 316.34 263.69C316.258 263.69 316.176 263.706 316.1 263.737C316.024 263.769 315.956 263.815 315.898 263.872C315.84 263.93 315.795 263.998 315.764 264.074C315.734 264.149 315.719 264.229 315.72 264.31L315.82 288.66C315.82 288.807 315.879 288.948 315.983 289.053C316.088 289.157 316.231 289.217 316.38 289.22Z" stroke="#F5D594" stroke-width="2"/>
<path d="M197.83 97.57C197.823 97.6041 197.826 97.6395 197.84 97.6715C197.853 97.7036 197.876 97.7307 197.906 97.7492C197.935 97.7677 197.97 97.7768 198.004 97.7751C198.039 97.7735 198.072 97.7613 198.1 97.74C269.58 46.99 358.6 18.03 446.18 24.58C522.85 30.32 593.86 64.4 652.06 114.45C669.953 129.837 686.14 145.453 700.62 161.3C700.847 161.547 700.833 161.563 700.58 161.35C657.173 124.637 609.72 95.6067 558.22 74.26C512.21 55.2 460.88 44.41 409.97 47.48C315.17 53.2 240.48 112.1 187.97 186.71C187.18 187.84 186.63 189.71 186.69 191.22C188.74 243.74 216.37 288.89 252.4 325.13C256.907 329.67 260.643 333.607 263.61 336.94C263.83 337.187 263.783 337.257 263.47 337.15C216.76 321.71 172.84 294.9 135.06 263.02C135.033 262.997 135.002 262.98 134.968 262.97C134.934 262.96 134.899 262.957 134.864 262.962C134.829 262.967 134.795 262.979 134.765 262.997C134.735 263.016 134.71 263.041 134.69 263.07C105.48 303.37 82.76 349.86 73.64 398.88C73.636 398.962 73.5995 399.04 73.5386 399.095C73.4776 399.15 73.3972 399.179 73.315 399.175C73.2328 399.171 73.1555 399.135 73.1002 399.074C73.0448 399.013 73.016 398.932 73.02 398.85C67.48 339.68 74.84 278.95 98.95 224.3C99.0227 224.135 99.062 223.957 99.0654 223.777C99.0688 223.597 99.0364 223.418 98.97 223.25L85.4 188.83C85.3243 188.633 85.3136 188.416 85.3693 188.212C85.425 188.007 85.5442 187.824 85.71 187.69C103.577 173.283 121.387 158.873 139.14 144.46C140.64 143.24 141.883 141.797 142.87 140.13C163.58 105.24 184.52 69.54 208.46 36.77C208.511 36.6987 208.582 36.6437 208.664 36.6113C208.746 36.579 208.835 36.5708 208.921 36.5876C209.007 36.6044 209.087 36.6456 209.151 36.7063C209.214 36.767 209.259 36.8446 209.28 36.93C209.32 37.0834 209.3 37.3534 209.22 37.74C205.253 57.6934 201.457 77.6367 197.83 97.57Z" fill="#EBAA28"/>
<path d="M295.31 242.44C322.623 243.053 357.74 243.23 400.66 242.97C417.28 242.87 423.17 250.03 423.68 266.11C423.953 274.73 423.843 283.343 423.35 291.95C423.163 295.163 422.563 297.767 421.55 299.76C415.11 312.38 401.97 310.05 390.08 310.02C365.413 309.96 340.76 310.07 316.12 310.35C316.021 310.353 315.927 310.394 315.858 310.465C315.789 310.536 315.75 310.631 315.75 310.73V340C315.75 340.133 315.697 340.26 315.604 340.354C315.51 340.447 315.383 340.5 315.25 340.5H283.62C283.453 340.5 283.293 340.434 283.175 340.315C283.056 340.197 282.99 340.037 282.99 339.87V242.98C282.99 242.844 283.041 242.714 283.134 242.615C283.227 242.517 283.355 242.458 283.49 242.45C285.597 242.31 289.537 242.307 295.31 242.44ZM316.38 289.22C338.24 289.29 360.07 289.65 381.93 289.4C389.27 289.31 397.24 284.57 397.22 276.58C397.21 270.8 392.48 265.69 387.07 264.29C385.59 263.903 382.69 263.68 378.37 263.62C361.87 263.38 343.56 263.85 316.34 263.69C316.258 263.69 316.176 263.706 316.1 263.737C316.025 263.769 315.956 263.815 315.898 263.872C315.84 263.93 315.795 263.998 315.764 264.073C315.734 264.149 315.719 264.229 315.72 264.31L315.82 288.66C315.82 288.807 315.879 288.948 315.983 289.052C316.088 289.157 316.231 289.217 316.38 289.22Z" fill="#EBAA28"/>
<path d="M509.23 279.1L471.27 339.76C471.13 339.983 470.935 340.167 470.704 340.295C470.473 340.423 470.214 340.49 469.95 340.49L434.5 340.5C434.45 340.501 434.401 340.489 434.357 340.465C434.314 340.441 434.277 340.406 434.252 340.363C434.226 340.321 434.213 340.272 434.212 340.222C434.212 340.172 434.225 340.123 434.25 340.08C451.79 309.473 469.297 278.877 486.77 248.29C487.87 246.363 489.04 244.483 490.28 242.65C490.364 242.527 490.477 242.426 490.609 242.356C490.742 242.286 490.89 242.25 491.04 242.25H524.21C524.366 242.25 524.52 242.29 524.656 242.367C524.793 242.444 524.908 242.556 524.99 242.69L584.79 339.82C584.831 339.888 584.853 339.966 584.855 340.045C584.857 340.125 584.838 340.203 584.801 340.272C584.763 340.341 584.708 340.399 584.641 340.439C584.574 340.479 584.498 340.5 584.42 340.5H546.6C546.356 340.5 546.117 340.436 545.906 340.315C545.696 340.194 545.521 340.02 545.4 339.81L509.95 279.11C509.914 279.047 509.861 278.995 509.799 278.959C509.736 278.922 509.665 278.902 509.593 278.901C509.52 278.9 509.449 278.918 509.385 278.953C509.322 278.988 509.268 279.038 509.23 279.1Z" fill="#EBAA28"/>
<path d="M625.7 283.22C625.7 283.72 625.903 283.827 626.31 283.54L684.59 242.56C684.883 242.358 685.228 242.25 685.58 242.25H726.51C726.603 242.249 726.694 242.278 726.769 242.333C726.844 242.388 726.899 242.466 726.926 242.555C726.953 242.644 726.951 242.739 726.919 242.827C726.887 242.914 726.828 242.989 726.75 243.04L677.16 277.72C677.054 277.794 676.964 277.888 676.897 277.999C676.829 278.109 676.785 278.232 676.767 278.361C676.75 278.489 676.758 278.62 676.793 278.746C676.828 278.871 676.888 278.988 676.97 279.09L727.24 339.85C727.607 340.29 727.503 340.51 726.93 340.51L687.28 340.48C687.106 340.48 686.933 340.44 686.776 340.362C686.618 340.284 686.479 340.17 686.37 340.03L649.55 292.03C649.505 291.97 649.448 291.919 649.383 291.881C649.318 291.844 649.246 291.819 649.171 291.81C649.097 291.801 649.021 291.807 648.948 291.827C648.876 291.848 648.809 291.883 648.75 291.93L626.22 309.89C626.073 310.009 625.955 310.158 625.874 310.328C625.793 310.497 625.75 310.683 625.75 310.87V340C625.75 340.133 625.697 340.26 625.604 340.354C625.51 340.447 625.383 340.5 625.25 340.5H596.88C596.745 340.5 596.615 340.445 596.519 340.348C596.424 340.25 596.37 340.118 596.37 339.98C596.61 301.727 596.643 276.653 596.47 264.76C596.323 254.393 596.377 247.087 596.63 242.84C596.64 242.68 596.711 242.53 596.828 242.42C596.945 242.311 597.1 242.25 597.26 242.25H625.4C625.525 242.25 625.644 242.3 625.732 242.388C625.821 242.476 625.87 242.595 625.87 242.72L625.7 283.22Z" fill="#EBAA28"/>
<path d="M515.25 481.73C433.87 478.57 351.7 457.37 272.75 456.74C213.92 456.27 156.05 477.95 107.07 509.91C106.954 509.985 106.823 510.036 106.686 510.057C106.549 510.079 106.409 510.071 106.276 510.036C106.142 510 106.017 509.936 105.909 509.849C105.801 509.762 105.713 509.653 105.65 509.53C90.57 480.397 79.78 449.737 73.28 417.55C73.2362 417.334 73.2618 417.11 73.3532 416.907C73.4446 416.705 73.5972 416.534 73.79 416.42C123.71 387.03 181.78 373.53 240 373.44C354.94 373.27 457.78 436.7 573 434.5C632.3 433.37 691.71 421.83 747.9 402.67C747.975 402.646 748.055 402.648 748.13 402.674C748.204 402.7 748.267 402.75 748.31 402.816C748.353 402.882 748.373 402.96 748.368 403.038C748.363 403.116 748.332 403.191 748.28 403.25C715.12 439.53 669.95 463.17 622.23 473.91C587.18 481.8 552.35 483.17 515.25 481.73Z" fill="#0D9DD9"/>
<path d="M746.66 426.91C727.69 450.75 703.27 471.71 677.32 487.6C630.35 516.37 579.53 527.59 524.57 526.47C501.603 526.003 478.667 524.87 455.76 523.07C434.34 521.39 412.72 520.89 391.24 520.22C358.813 519.213 326.47 520.297 294.21 523.47C243.87 528.43 193.98 546.92 157.74 583.05C157.693 583.098 157.636 583.135 157.574 583.161C157.512 583.186 157.445 583.199 157.378 583.198C157.311 583.197 157.244 583.183 157.183 583.155C157.121 583.128 157.066 583.089 157.02 583.04C140.013 564.287 125.153 543.96 112.44 522.06C112.32 521.855 112.28 521.613 112.328 521.38C112.376 521.147 112.508 520.941 112.7 520.8C151.78 491.76 200.32 475.84 248.08 469.22C274.37 465.57 302.7 466.92 329.32 469.68C382.18 475.16 434.47 484.54 487.32 490.17C522.61 493.93 560.09 495.45 595.24 489.75C648.66 481.08 707.74 460.93 747.63 422.71C747.722 422.623 747.839 422.568 747.965 422.554C748.09 422.54 748.217 422.567 748.326 422.632C748.434 422.696 748.519 422.794 748.567 422.911C748.615 423.028 748.623 423.158 748.59 423.28C748.25 424.5 747.607 425.71 746.66 426.91Z" fill="#005CA5"/>
<path d="M587.84 533.08C647.01 525.4 703.65 494.56 741.65 448.36C741.674 448.333 741.708 448.314 741.744 448.307C741.781 448.3 741.818 448.305 741.85 448.322C741.882 448.338 741.907 448.365 741.919 448.398C741.932 448.43 741.932 448.466 741.92 448.5C709.78 554.61 631.38 637.28 527.27 675.3C511.71 680.99 496.12 685.05 479.44 687.36C434.23 693.63 386.71 694.61 341.5 687.75C337.02 687.07 330.35 685.72 325.13 684.34C264.03 668.173 211.133 637.71 166.44 592.95C166.387 592.899 166.345 592.837 166.316 592.768C166.288 592.699 166.274 592.626 166.275 592.551C166.276 592.476 166.292 592.402 166.322 592.333C166.352 592.264 166.396 592.202 166.45 592.15C195.28 564.67 231.74 545.07 271.05 538.32C326.27 528.82 381.35 531.73 436.93 535.32C446.28 535.92 458.37 536.06 469.08 536.73C474.38 537.063 478.663 537.263 481.93 537.33C519.33 538.08 552.1 537.71 587.84 533.08Z" fill="#005CA5"/>
</g>
<path d="M5.31048 747.223H14.7549C19.864 747.223 23.5421 747.7 25.7892 748.654C28.0576 749.587 29.8383 751.113 31.1315 753.233C32.4459 755.332 33.1031 757.855 33.1031 760.802C33.1031 764.066 32.2445 766.78 30.5273 768.942C28.8314 771.105 26.5206 772.61 23.5951 773.458C21.8779 773.945 18.751 774.189 14.2143 774.189V794H5.31048V747.223ZM14.2143 765.508H17.0444C19.2704 765.508 20.8179 765.349 21.6871 765.031C22.5563 764.713 23.2347 764.193 23.7223 763.473C24.2311 762.731 24.4855 761.84 24.4855 760.802C24.4855 759 23.7859 757.685 22.3867 756.858C21.3691 756.244 19.4824 755.936 16.7264 755.936H14.2143V765.508ZM63.9484 746.047C70.5627 746.047 76.2441 748.442 80.9928 753.233C85.7627 758.024 88.1477 763.865 88.1477 770.755C88.1477 777.581 85.7945 783.358 81.0882 788.085C76.4031 792.813 70.7111 795.177 64.012 795.177C56.995 795.177 51.1651 792.749 46.5224 787.895C41.8797 783.04 39.5583 777.274 39.5583 770.596C39.5583 766.123 40.6395 762.01 42.8019 758.258C44.9642 754.505 47.9322 751.537 51.7057 749.354C55.5004 747.149 59.5813 746.047 63.9484 746.047ZM63.853 754.76C59.5283 754.76 55.8926 756.265 52.9458 759.275C49.9991 762.285 48.5257 766.112 48.5257 770.755C48.5257 775.927 50.3807 780.019 54.0906 783.029C56.9738 785.382 60.2809 786.559 64.012 786.559C68.2307 786.559 71.824 785.033 74.792 781.98C77.7599 778.927 79.2439 775.164 79.2439 770.691C79.2439 766.239 77.7493 762.476 74.7602 759.402C71.771 756.307 68.1353 754.76 63.853 754.76ZM97.1469 747.223H106.591C111.764 747.223 115.442 747.69 117.626 748.622C119.83 749.534 121.601 751.06 122.936 753.201C124.272 755.343 124.939 757.876 124.939 760.802C124.939 763.875 124.197 766.451 122.714 768.529C121.251 770.585 119.035 772.143 116.067 773.203L127.134 794H117.403L106.877 774.189H106.051V794H97.1469V747.223ZM106.051 765.508H108.849C111.69 765.508 113.64 765.137 114.7 764.395C115.781 763.653 116.322 762.423 116.322 760.706C116.322 759.689 116.057 758.809 115.527 758.067C114.997 757.304 114.287 756.763 113.396 756.445C112.506 756.106 110.874 755.936 108.499 755.936H106.051V765.508ZM129.709 747.223H155.562V756H147.04V794H138.009V756H129.709V747.223ZM194.167 747.223H203.198L221.196 794H211.942L208.285 784.365H189.206L185.39 794H176.136L194.167 747.223ZM198.746 759.625L192.513 775.684H204.947L198.746 759.625ZM227.81 747.223H236.746V777.496C236.746 780.104 236.968 781.948 237.414 783.029C237.88 784.11 238.633 784.98 239.671 785.637C240.731 786.273 242.003 786.591 243.487 786.591C245.056 786.591 246.402 786.23 247.526 785.51C248.671 784.789 249.455 783.877 249.879 782.775C250.324 781.651 250.547 779.521 250.547 776.383V747.223H259.482V775.111C259.482 779.818 259.217 783.082 258.687 784.905C258.157 786.729 257.14 788.488 255.635 790.184C254.151 791.88 252.433 793.141 250.483 793.968C248.533 794.774 246.264 795.177 243.678 795.177C240.286 795.177 237.329 794.403 234.806 792.855C232.305 791.286 230.513 789.336 229.432 787.004C228.351 784.651 227.81 780.687 227.81 775.111V747.223ZM265.238 747.223H291.091V756H282.569V794H273.538V756H265.238V747.223ZM319.297 746.047C325.911 746.047 331.593 748.442 336.341 753.233C341.111 758.024 343.496 763.865 343.496 770.755C343.496 777.581 341.143 783.358 336.437 788.085C331.752 792.813 326.059 795.177 319.36 795.177C312.343 795.177 306.514 792.749 301.871 787.895C297.228 783.04 294.907 777.274 294.907 770.596C294.907 766.123 295.988 762.01 298.15 758.258C300.313 754.505 303.281 751.537 307.054 749.354C310.849 747.149 314.93 746.047 319.297 746.047ZM319.201 754.76C314.877 754.76 311.241 756.265 308.294 759.275C305.348 762.285 303.874 766.112 303.874 770.755C303.874 775.927 305.729 780.019 309.439 783.029C312.322 785.382 315.629 786.559 319.36 786.559C323.579 786.559 327.172 785.033 330.14 781.98C333.108 778.927 334.592 775.164 334.592 770.691C334.592 766.239 333.098 762.476 330.109 759.402C327.119 756.307 323.484 754.76 319.201 754.76ZM351.923 747.223H360.445L380.51 778.005V747.223H389.414V794H380.86L360.827 763.314V794H351.923V747.223ZM422.199 746.047C428.814 746.047 434.495 748.442 439.244 753.233C444.014 758.024 446.399 763.865 446.399 770.755C446.399 777.581 444.046 783.358 439.339 788.085C434.654 792.813 428.962 795.177 422.263 795.177C415.246 795.177 409.416 792.749 404.773 787.895C400.131 783.04 397.809 777.274 397.809 770.596C397.809 766.123 398.891 762.01 401.053 758.258C403.215 754.505 406.183 751.537 409.957 749.354C413.751 747.149 417.832 746.047 422.199 746.047ZM422.104 754.76C417.779 754.76 414.144 756.265 411.197 759.275C408.25 762.285 406.777 766.112 406.777 770.755C406.777 775.927 408.632 780.019 412.342 783.029C415.225 785.382 418.532 786.559 422.263 786.559C426.482 786.559 430.075 785.033 433.043 781.98C436.011 778.927 437.495 775.164 437.495 770.691C437.495 766.239 436 762.476 433.011 759.402C430.022 756.307 426.386 754.76 422.104 754.76ZM459.309 747.223H468.022L478.834 779.849L489.805 747.223H498.391L506.277 794H497.691L492.667 764.458L482.713 794H474.859L465.033 764.458L459.913 794H451.232L459.309 747.223ZM513.463 747.223H538.998V755.936H522.304V764.395H538.998V772.949H522.304V785.255H538.998V794H513.463V747.223ZM565.614 747.223H576.172C582.977 747.223 588.033 748.071 591.34 749.767C594.647 751.442 597.371 754.177 599.512 757.971C601.653 761.766 602.724 766.197 602.724 771.263C602.724 774.867 602.12 778.185 600.911 781.217C599.724 784.227 598.071 786.729 595.951 788.721C593.852 790.714 591.573 792.092 589.114 792.855C586.655 793.618 582.394 794 576.331 794H565.614V747.223ZM574.486 755.809V785.287H578.62C582.69 785.287 585.637 784.821 587.46 783.888C589.305 782.955 590.81 781.386 591.976 779.182C593.142 776.977 593.725 774.263 593.725 771.041C593.725 766.08 592.336 762.232 589.559 759.498C587.058 757.039 583.04 755.809 577.507 755.809H574.486ZM611.214 747.223H636.749V755.936H620.055V764.395H636.749V772.949H620.055V785.255H636.749V794H611.214V747.223ZM663.397 747.223H672.396V763.314L685.084 747.223H695.801L679.456 768.084L697.391 794H686.833L672.396 773.235V794H663.397V747.223ZM704.323 747.223H713.767C718.94 747.223 722.618 747.69 724.802 748.622C727.006 749.534 728.776 751.06 730.112 753.201C731.448 755.343 732.115 757.876 732.115 760.802C732.115 763.875 731.373 766.451 729.889 768.529C728.427 770.585 726.211 772.143 723.243 773.203L734.31 794H724.579L714.053 774.189H713.227V794H704.323V747.223ZM713.227 765.508H716.025C718.866 765.508 720.816 765.137 721.876 764.395C722.957 763.653 723.498 762.423 723.498 760.706C723.498 759.689 723.233 758.809 722.703 758.067C722.173 757.304 721.463 756.763 720.572 756.445C719.682 756.106 718.05 755.936 715.675 755.936H713.227V765.508ZM740.86 747.223H749.7V794H740.86V747.223ZM759.749 794V747.223H767.095C771.356 747.223 774.472 747.499 776.444 748.05C779.242 748.792 781.468 750.17 783.122 752.184C784.775 754.198 785.602 756.572 785.602 759.307C785.602 761.088 785.22 762.709 784.457 764.172C783.715 765.614 782.496 766.971 780.8 768.243C783.641 769.578 785.718 771.253 787.033 773.267C788.347 775.26 789.004 777.623 789.004 780.358C789.004 782.987 788.326 785.382 786.969 787.545C785.612 789.707 783.863 791.329 781.722 792.41C779.581 793.47 776.624 794 772.85 794H759.749ZM768.653 755.714V765.571H770.593C772.755 765.571 774.356 765.116 775.394 764.204C776.454 763.292 776.984 762.052 776.984 760.484C776.984 759.021 776.486 757.865 775.49 757.017C774.493 756.148 772.978 755.714 770.942 755.714H768.653ZM768.653 773.521V785.51H770.879C774.567 785.51 777.048 785.043 778.32 784.11C779.613 783.178 780.26 781.821 780.26 780.04C780.26 778.026 779.507 776.436 778.002 775.27C776.497 774.104 773.995 773.521 770.497 773.521H768.653ZM796.891 747.223H805.731V794H796.891V747.223Z" fill="#0B5DA7"/>
<path d="M23.2087 846.691H32.4722C37.4834 846.691 41.091 847.159 43.2951 848.094C45.52 849.009 47.2667 850.506 48.5351 852.586C49.8242 854.644 50.4688 857.119 50.4688 860.009C50.4688 863.211 49.6267 865.873 47.9424 867.994C46.279 870.115 44.0125 871.591 41.143 872.423C39.4588 872.901 36.3917 873.14 31.942 873.14V892.571H23.2087V846.691ZM31.942 864.625H34.7179C36.9012 864.625 38.4191 864.469 39.2716 864.157C40.1241 863.845 40.7895 863.336 41.2678 862.629C41.7668 861.901 42.0163 861.028 42.0163 860.009C42.0163 858.242 41.3302 856.952 39.9578 856.141C38.9597 855.538 37.1091 855.237 34.406 855.237H31.942V864.625ZM80.7232 845.537C87.2107 845.537 92.7833 847.886 97.4411 852.586C102.12 857.285 104.459 863.014 104.459 869.771C104.459 876.467 102.151 882.133 97.5346 886.77C92.9393 891.407 87.3563 893.725 80.7856 893.725C73.903 893.725 68.1848 891.345 63.631 886.583C59.0773 881.821 56.8004 876.165 56.8004 869.616C56.8004 865.228 57.8609 861.194 59.9818 857.514C62.1027 853.833 65.0138 850.922 68.715 848.781C72.437 846.618 76.4398 845.537 80.7232 845.537ZM80.6296 854.083C76.3878 854.083 72.8217 855.559 69.9314 858.512C67.0412 861.465 65.596 865.218 65.596 869.771C65.596 874.845 67.4154 878.858 71.0543 881.811C73.8822 884.119 77.1259 885.273 80.7856 885.273C84.9235 885.273 88.4479 883.776 91.359 880.782C94.2701 877.787 95.7256 874.097 95.7256 869.709C95.7256 865.342 94.2597 861.652 91.3278 858.637C88.3959 855.601 84.8299 854.083 80.6296 854.083ZM113.286 846.691H122.549C127.623 846.691 131.23 847.148 133.372 848.063C135.535 848.957 137.271 850.454 138.581 852.555C139.891 854.655 140.546 857.14 140.546 860.009C140.546 863.024 139.818 865.55 138.362 867.588C136.928 869.605 134.755 871.133 131.844 872.173L142.698 892.571H133.154L122.83 873.14H122.019V892.571H113.286V846.691ZM122.019 864.625H124.764C127.55 864.625 129.463 864.261 130.503 863.533C131.563 862.806 132.093 861.6 132.093 859.915C132.093 858.917 131.833 858.054 131.313 857.327C130.794 856.578 130.097 856.048 129.224 855.736C128.35 855.403 126.749 855.237 124.42 855.237H122.019V864.625ZM145.224 846.691H170.582V855.299H162.223V892.571H153.365V855.299H145.224V846.691ZM208.446 846.691H217.304L234.958 892.571H225.882L222.295 883.121H203.581L199.838 892.571H190.762L208.446 846.691ZM212.938 858.855L206.825 874.606H219.02L212.938 858.855ZM241.446 846.691H250.21V876.384C250.21 878.941 250.428 880.75 250.865 881.811C251.322 882.871 252.061 883.724 253.079 884.368C254.119 884.992 255.367 885.304 256.822 885.304C258.361 885.304 259.681 884.951 260.783 884.244C261.906 883.537 262.676 882.643 263.091 881.561C263.528 880.459 263.746 878.37 263.746 875.292V846.691H272.511V874.045C272.511 878.661 272.251 881.863 271.731 883.651C271.211 885.439 270.213 887.165 268.737 888.829C267.281 890.492 265.597 891.729 263.684 892.54C261.771 893.33 259.546 893.725 257.009 893.725C253.682 893.725 250.782 892.966 248.307 891.449C245.854 889.91 244.097 887.997 243.036 885.71C241.976 883.402 241.446 879.513 241.446 874.045V846.691ZM278.156 846.691H303.514V855.299H295.155V892.571H286.297V855.299H278.156V846.691ZM309.471 846.691H318.329V864.001H333.675V846.691H342.501V892.571H333.675V872.454H318.329V892.571H309.471V846.691ZM374.658 845.537C381.146 845.537 386.718 847.886 391.376 852.586C396.055 857.285 398.394 863.014 398.394 869.771C398.394 876.467 396.086 882.133 391.47 886.77C386.874 891.407 381.291 893.725 374.721 893.725C367.838 893.725 362.12 891.345 357.566 886.583C353.012 881.821 350.735 876.165 350.735 869.616C350.735 865.228 351.796 861.194 353.917 857.514C356.038 853.833 358.949 850.922 362.65 848.781C366.372 846.618 370.375 845.537 374.658 845.537ZM374.565 854.083C370.323 854.083 366.757 855.559 363.866 858.512C360.976 861.465 359.531 865.218 359.531 869.771C359.531 874.845 361.35 878.858 364.989 881.811C367.817 884.119 371.061 885.273 374.721 885.273C378.858 885.273 382.383 883.776 385.294 880.782C388.205 877.787 389.661 874.097 389.661 869.709C389.661 865.342 388.195 861.652 385.263 858.637C382.331 855.601 378.765 854.083 374.565 854.083ZM407.221 846.691H416.484C421.558 846.691 425.165 847.148 427.307 848.063C429.47 848.957 431.206 850.454 432.516 852.555C433.826 854.655 434.481 857.14 434.481 860.009C434.481 863.024 433.753 865.55 432.297 867.588C430.863 869.605 428.69 871.133 425.779 872.173L436.633 892.571H427.089L416.765 873.14H415.954V892.571H407.221V846.691ZM415.954 864.625H418.699C421.485 864.625 423.398 864.261 424.438 863.533C425.498 862.806 426.028 861.6 426.028 859.915C426.028 858.917 425.768 858.054 425.249 857.327C424.729 856.578 424.032 856.048 423.159 855.736C422.285 855.403 420.684 855.237 418.356 855.237H415.954V864.625ZM443.058 846.691H451.729V892.571H443.058V846.691ZM457.062 846.691H482.42V855.299H474.061V892.571H465.203V855.299H457.062V846.691ZM485.133 846.691H494.522L503.068 863.159L511.551 846.691H520.815L507.403 872.703V892.571H498.608V872.703L485.133 846.691ZM567.6 845.537C574.087 845.537 579.66 847.886 584.318 852.586C588.996 857.285 591.336 863.014 591.336 869.771C591.336 876.467 589.027 882.133 584.411 886.77C579.816 891.407 574.233 893.725 567.662 893.725C560.78 893.725 555.061 891.345 550.508 886.583C545.954 881.821 543.677 876.165 543.677 869.616C543.677 865.228 544.738 861.194 546.858 857.514C548.979 853.833 551.89 850.922 555.592 848.781C559.314 846.618 563.316 845.537 567.6 845.537ZM567.506 854.083C563.264 854.083 559.698 855.559 556.808 858.512C553.918 861.465 552.473 865.218 552.473 869.771C552.473 874.845 554.292 878.858 557.931 881.811C560.759 884.119 564.003 885.273 567.662 885.273C571.8 885.273 575.325 883.776 578.236 880.782C581.147 877.787 582.602 874.097 582.602 869.709C582.602 865.342 581.136 861.652 578.204 858.637C575.273 855.601 571.707 854.083 567.506 854.083ZM599.694 846.691H622.463V855.206H608.334V863.533H622.463V871.924H608.334V892.571H599.694V846.691ZM648.226 846.691H657.053V862.473L669.498 846.691H680.009L663.977 867.152L681.568 892.571H671.213L657.053 872.204V892.571H648.226V846.691ZM688.368 846.691H697.631C702.705 846.691 706.312 847.148 708.454 848.063C710.617 848.957 712.353 850.454 713.663 852.555C714.973 854.655 715.628 857.14 715.628 860.009C715.628 863.024 714.9 865.55 713.445 867.588C712.01 869.605 709.837 871.133 706.926 872.173L717.78 892.571H708.236L697.912 873.14H697.101V892.571H688.368V846.691ZM697.101 864.625H699.846C702.632 864.625 704.545 864.261 705.585 863.533C706.645 862.806 707.175 861.6 707.175 859.915C707.175 858.917 706.915 858.054 706.396 857.327C705.876 856.578 705.179 856.048 704.306 855.736C703.433 855.403 701.831 855.237 699.503 855.237H697.101V864.625ZM724.205 846.691H732.876V892.571H724.205V846.691ZM742.732 892.571V846.691H749.937C754.116 846.691 757.173 846.961 759.107 847.502C761.852 848.23 764.035 849.581 765.657 851.556C767.279 853.532 768.09 855.861 768.09 858.543C768.09 860.29 767.715 861.88 766.967 863.315C766.239 864.729 765.043 866.06 763.38 867.307C766.166 868.617 768.204 870.26 769.493 872.235C770.782 874.19 771.427 876.509 771.427 879.191C771.427 881.769 770.762 884.119 769.431 886.24C768.1 888.361 766.385 889.951 764.284 891.012C762.184 892.052 759.284 892.571 755.582 892.571H742.732ZM751.465 855.019V864.688H753.368C755.489 864.688 757.059 864.24 758.078 863.346C759.117 862.452 759.637 861.236 759.637 859.697C759.637 858.262 759.148 857.129 758.171 856.297C757.194 855.445 755.707 855.019 753.711 855.019H751.465ZM751.465 872.485V884.244H753.649C757.267 884.244 759.699 883.786 760.947 882.871C762.215 881.956 762.85 880.626 762.85 878.879C762.85 876.904 762.111 875.344 760.635 874.2C759.159 873.057 756.705 872.485 753.274 872.485H751.465ZM779.162 846.691H787.833V892.571H779.162V846.691Z" fill="#149FDA"/>
<defs>
<clipPath id="clip0_255_9218">
<rect width="694" height="708" fill="white" transform="translate(58.5)"/>
</clipPath>
</defs>
</svg>
