<svg width="1151" height="373" viewBox="0 0 1151 373" fill="none" xmlns="http://www.w3.org/2000/svg">
<g clip-path="url(#clip0_538_3318)">
<path d="M276.86 678.606C273.837 677.51 271.502 676.496 269.855 675.563C269.67 675.459 269.531 675.292 269.461 675.093C269.392 674.893 269.397 674.675 269.477 674.479C291.534 621.628 327.335 572.788 373.99 539.524C435.719 495.523 503.789 466.711 574.252 439.984C660.041 407.433 745.548 374.551 824.283 326.648C904.56 277.801 961.178 200.388 987.442 111.033C987.452 110.966 987.487 110.907 987.539 110.865C987.591 110.823 987.658 110.803 987.724 110.808C987.791 110.814 987.853 110.844 987.898 110.894C987.943 110.943 987.968 111.008 987.967 111.074C1011.12 295.855 939.298 476.638 794.719 594.23C789.73 598.283 779.373 605.157 763.647 614.853C704.328 651.408 640.557 680.909 573.82 699.227C566.608 701.207 559.452 702.801 552.351 704.008C459.015 719.889 367.185 711.422 276.86 678.606Z" fill="#165EA6"/>
<path d="M518.685 441.034C474.457 460.248 431.66 482.196 390.293 506.877C383.374 511 377.228 514.989 371.854 518.846C319.279 556.596 274.138 606.382 251.15 667.775C251.017 668.124 250.777 668.223 250.429 668.074C214.557 652.538 180.776 633.313 149.084 610.398C148.907 610.27 148.782 610.081 148.733 609.867C148.683 609.652 148.712 609.426 148.814 609.23C182.958 545.137 241.886 492.604 302.099 453.742C329.356 436.144 359.551 422.435 390.001 411.336C503.049 370.118 610.219 350.761 721.017 305.598C751.753 293.069 779.963 278.518 805.648 261.946C877.489 215.604 946.479 150.942 980.078 70.1215C980.22 69.7927 980.371 69.7893 980.532 70.1111C981.615 72.277 982.008 73.8968 981.71 74.9706C954.835 174.171 894.187 261.551 807.338 317.299C769.636 341.498 729.17 359.21 684.873 376.012C629.195 397.11 573.328 417.303 518.685 441.034Z" fill="#165EA6"/>
<path d="M344.704 412.603C300.982 430.473 261.674 455.255 226.779 486.951C190.714 519.709 159.607 556.556 133.461 597.491C133.148 597.977 132.766 598.039 132.315 597.679C92.4422 566.194 57.772 529.737 28.3052 488.306C28.1453 488.081 28.0594 487.813 28.0595 487.538C28.0596 487.264 28.1457 486.997 28.3057 486.775C97.2921 389.363 205.603 321.665 319.756 291.728C413.156 267.228 505.884 260.904 604.482 241.33C639.835 234.312 676.05 224.727 709.482 211.194C804.591 172.655 892.781 111.967 967.648 42.1857C967.687 42.1531 967.736 42.1338 967.787 42.1307C967.838 42.1275 967.889 42.1407 967.932 42.1682C967.975 42.1958 968.009 42.2362 968.027 42.284C968.046 42.3316 968.049 42.3839 968.036 42.4335C942.978 124.908 876.982 198.076 805.419 242.485C688.773 314.873 554.288 343.634 425.927 383.365C399.29 391.613 372.215 401.359 344.704 412.603Z" fill="#389ED9"/>
</g>
<defs>
<clipPath id="clip0_538_3318">
<rect width="1040.47" height="490.541" fill="white" transform="translate(0.597656 426.579) rotate(-24.1523)"/>
</clipPath>
</defs>
</svg>
