<svg width="422" height="98" viewBox="0 0 422 98" fill="none" xmlns="http://www.w3.org/2000/svg">
<g clip-path="url(#clip0_73_1695)">
<path d="M19.6748 13.5055C20.187 10.7463 20.7231 7.98583 21.2832 5.22393C21.2945 5.17041 21.2973 5.13303 21.2917 5.11181C21.2887 5.09999 21.2824 5.08924 21.2734 5.08084C21.2645 5.07244 21.2532 5.06674 21.241 5.06441C21.2288 5.06208 21.2162 5.06322 21.2047 5.0677C21.1931 5.07217 21.1832 5.0798 21.1759 5.08966C17.7953 9.62562 14.8384 14.5672 11.9139 19.3966C11.7746 19.6273 11.599 19.827 11.3872 19.9959C8.88024 21.991 6.36528 23.9856 3.84232 25.9797C3.81892 25.9983 3.80208 26.0236 3.79421 26.0519C3.78635 26.0803 3.78787 26.1102 3.79855 26.1375L5.71477 30.9019C5.72415 30.9251 5.72873 30.9499 5.72825 30.9748C5.72776 30.9998 5.72222 31.0244 5.71195 31.0472C2.30737 38.6118 1.26806 47.0179 2.05036 55.2081C2.0498 55.2195 2.05387 55.2306 2.06169 55.239C2.0695 55.2475 2.08041 55.2525 2.09202 55.2531C2.10363 55.2536 2.11499 55.2496 2.12359 55.242C2.1322 55.2343 2.13735 55.2236 2.13791 55.2122C3.42575 48.427 6.63405 41.9919 10.7588 36.4137C10.7616 36.4096 10.7652 36.4062 10.7694 36.4036C10.7737 36.4011 10.7784 36.3994 10.7833 36.3987C10.7883 36.3981 10.7933 36.3985 10.7981 36.3998C10.8029 36.4012 10.8073 36.4036 10.8111 36.4068C16.146 40.8195 22.3479 44.5305 28.9439 46.6677C28.9881 46.6824 28.9947 46.6728 28.9636 46.6386C28.5447 46.1772 28.0171 45.6323 27.3807 45.0039C22.2929 39.9876 18.3912 33.7381 18.1017 26.4683C18.0933 26.2593 18.1709 26.0005 18.2825 25.8441C25.6975 15.5167 36.2445 7.36387 49.6312 6.57212C56.8202 6.14718 64.0685 7.64071 70.5656 10.279C77.838 13.2337 84.5389 17.252 90.6684 22.3338C90.7041 22.3633 90.706 22.361 90.674 22.3269C88.6293 20.1334 86.3435 17.9718 83.8168 15.842C75.5984 8.91415 65.571 4.19687 54.7444 3.40235C42.3772 2.49571 29.8067 6.5043 19.713 13.529C19.7091 13.532 19.7043 13.5336 19.6994 13.5339C19.6945 13.5341 19.6897 13.5328 19.6855 13.5303C19.6814 13.5277 19.6781 13.524 19.6762 13.5195C19.6743 13.5151 19.6738 13.5102 19.6748 13.5055Z" stroke="#F5D594" stroke-width="0.30791"/>
<path d="M33.44 33.5581C32.6248 33.5396 32.0684 33.5401 31.7709 33.5594C31.7518 33.5605 31.7339 33.5687 31.7207 33.5823C31.7076 33.596 31.7003 33.614 31.7003 33.6328V47.0441C31.7003 47.0673 31.7097 47.0894 31.7264 47.1058C31.7431 47.1222 31.7657 47.1313 31.7893 47.1313H36.2558C36.2745 47.1313 36.2924 47.124 36.3057 47.1111C36.3189 47.0981 36.3264 47.0805 36.3264 47.0621V43.0106C36.3264 42.9969 36.3318 42.9837 36.3416 42.9739C36.3513 42.9641 36.3646 42.9584 36.3786 42.958C39.858 42.9193 43.3393 42.904 46.8225 42.9124C48.5015 42.9165 50.357 43.239 51.2664 41.4922C51.4095 41.2163 51.4942 40.8559 51.5206 40.4111C51.5903 39.2198 51.6058 38.0276 51.5672 36.8344C51.4952 34.6087 50.6635 33.6176 48.3165 33.6314C42.2558 33.6674 37.297 33.643 33.44 33.5581Z" stroke="#F5D594" stroke-width="0.30791"/>
<path d="M63.7494 38.6338L68.7553 47.0358C68.7725 47.0648 68.7971 47.0889 68.8269 47.1057C68.8566 47.1225 68.8904 47.1313 68.9248 47.1313H74.2654C74.2764 47.1313 74.2872 47.1284 74.2966 47.1229C74.306 47.1173 74.3138 47.1094 74.3191 47.0998C74.3244 47.0902 74.3271 47.0794 74.3268 47.0684C74.3266 47.0574 74.3234 47.0466 74.3176 47.0372L65.8732 33.5926C65.8616 33.574 65.8454 33.5587 65.8261 33.548C65.8068 33.5373 65.7851 33.5317 65.7631 33.5317H61.0792C61.0579 33.5317 61.037 33.5367 61.0183 33.5464C60.9996 33.556 60.9836 33.57 60.9718 33.5871C60.7967 33.8409 60.6315 34.1011 60.4762 34.3678C58.0088 38.6015 55.5366 42.8367 53.0598 47.0732C53.0563 47.0791 53.0545 47.0859 53.0545 47.0928C53.0546 47.0997 53.0565 47.1065 53.0601 47.1124C53.0637 47.1183 53.0688 47.1232 53.075 47.1265C53.0811 47.1299 53.0881 47.1315 53.0951 47.1313L58.101 47.1299C58.1383 47.1299 58.1749 47.1206 58.2075 47.103C58.2401 47.0853 58.2676 47.0598 58.2874 47.0289L63.6478 38.6324C63.6532 38.6239 63.6607 38.6169 63.6697 38.6121C63.6787 38.6073 63.6888 38.6048 63.699 38.6049C63.7092 38.6051 63.7193 38.6078 63.7281 38.6129C63.7369 38.6179 63.7443 38.6252 63.7494 38.6338Z" stroke="#F5D594" stroke-width="0.30791"/>
<path d="M80.0945 39.2027L80.1185 33.5968C80.1185 33.5795 80.1115 33.563 80.0991 33.5508C80.0866 33.5386 80.0698 33.5317 80.0522 33.5317H76.0785C76.0559 33.5317 76.034 33.5401 76.0175 33.5553C76.001 33.5705 75.991 33.5913 75.9895 33.6134C75.9538 34.2012 75.9462 35.2126 75.9669 36.6475C75.9914 38.2938 75.9867 41.7644 75.9528 47.0593C75.9528 47.0784 75.9604 47.0967 75.9739 47.1102C75.9874 47.1237 76.0057 47.1313 76.0248 47.1313H80.031C80.0497 47.1313 80.0677 47.124 80.0809 47.111C80.0941 47.0981 80.1016 47.0805 80.1016 47.0621V43.03C80.1016 43.004 80.1076 42.9784 80.1191 42.9549C80.1306 42.9315 80.1473 42.9108 80.1679 42.8943L83.3494 40.4084C83.3577 40.4018 83.3672 40.397 83.3774 40.3941C83.3877 40.3913 83.3984 40.3905 83.4089 40.3917C83.4195 40.393 83.4296 40.3964 83.4388 40.4016C83.448 40.4069 83.456 40.4139 83.4624 40.4222L88.6618 47.0663C88.6772 47.0857 88.6968 47.1014 88.719 47.1122C88.7413 47.123 88.7657 47.1286 88.7903 47.1286L94.3892 47.1327C94.4702 47.1327 94.4848 47.1023 94.433 47.0413L87.3344 38.6311C87.3228 38.617 87.3143 38.6008 87.3094 38.5834C87.3045 38.566 87.3032 38.5479 87.3058 38.5301C87.3083 38.5123 87.3145 38.4952 87.324 38.48C87.3336 38.4647 87.3462 38.4516 87.3612 38.4414L94.3638 33.6411C94.3748 33.634 94.3832 33.6237 94.3877 33.6116C94.3922 33.5995 94.3926 33.5863 94.3887 33.574C94.3849 33.5616 94.3771 33.5509 94.3665 33.5432C94.3559 33.5356 94.3431 33.5316 94.3299 33.5317H88.5502C88.5005 33.5318 88.4517 33.5467 88.4104 33.5747L80.1807 39.247C80.1232 39.2867 80.0945 39.2719 80.0945 39.2027Z" stroke="#F5D594" stroke-width="0.30791"/>
<path d="M30.2543 63.2211C41.4029 63.3083 53.0062 66.2427 64.4979 66.6801C69.7368 66.8795 74.6551 66.6898 79.6045 65.5977C86.3431 64.1111 92.7216 60.8389 97.4041 55.8171C97.4114 55.8089 97.4158 55.7986 97.4165 55.7877C97.4173 55.7769 97.4144 55.7661 97.4084 55.757C97.4023 55.7479 97.3933 55.741 97.3829 55.7373C97.3724 55.7337 97.361 55.7335 97.3505 55.7368C89.4158 58.3889 81.0265 59.9862 72.6528 60.1426C56.3825 60.4472 41.8604 51.6673 25.6297 51.6908C17.4084 51.7033 9.20835 53.5719 2.15913 57.6401C2.13191 57.6559 2.11035 57.6794 2.09744 57.7075C2.08454 57.7355 2.08093 57.7666 2.08711 57.7965C3.00498 62.2517 4.52864 66.4956 6.65809 70.5282C6.667 70.5452 6.67946 70.5603 6.69468 70.5723C6.70989 70.5844 6.72752 70.5932 6.74642 70.5981C6.76532 70.6031 6.78507 70.6041 6.8044 70.6011C6.82372 70.5981 6.84219 70.5912 6.85861 70.5808C13.7751 66.1569 21.9469 63.156 30.2543 63.2211Z" stroke="#86CEEC" stroke-width="0.30791"/>
<path d="M87.3838 67.4927C91.0482 65.2932 94.4965 62.392 97.1753 59.0921C97.309 58.926 97.3998 58.7585 97.4478 58.5896C97.4524 58.5727 97.4513 58.5548 97.4446 58.5386C97.4378 58.5224 97.4259 58.5088 97.4105 58.4999C97.3952 58.491 97.3773 58.4872 97.3595 58.4892C97.3418 58.4911 97.3252 58.4987 97.3123 58.5107C91.6794 63.8011 83.3367 66.5902 75.7932 67.7903C70.8297 68.5793 65.5371 68.3689 60.5538 67.8484C53.0908 67.0691 45.7069 65.7708 38.2426 65.0122C34.4835 64.6302 30.4831 64.4433 26.7706 64.9486C20.0264 65.8649 13.1721 68.0685 7.65358 72.0882C7.62652 72.1076 7.60779 72.1362 7.601 72.1685C7.59422 72.2007 7.59987 72.2342 7.61686 72.2626C9.41211 75.2939 11.5105 78.1075 13.912 80.7033C13.9185 80.7101 13.9263 80.7155 13.935 80.7193C13.9437 80.7231 13.9531 80.7251 13.9626 80.7252C13.972 80.7253 13.9815 80.7236 13.9903 80.7201C13.999 80.7165 14.007 80.7113 14.0137 80.7047C19.1312 75.7037 26.1761 73.1443 33.2847 72.4578C37.8401 72.0185 42.4073 71.8686 46.9863 72.0079C50.0195 72.1006 53.0725 72.1698 56.0972 72.4024C59.3319 72.6515 62.5708 72.8084 65.8139 72.873C73.5748 73.028 80.7511 71.475 87.3838 67.4927Z" stroke="#80AED2" stroke-width="0.30791"/>
<path d="M96.4679 62.0611C91.1019 68.456 83.1037 72.7248 74.7483 73.7879C69.7014 74.4288 65.074 74.48 59.7927 74.3762C59.3314 74.3669 58.7266 74.3392 57.9781 74.2931C56.4658 74.2004 54.7585 74.181 53.4382 74.0979C45.5897 73.601 37.8119 73.1982 30.0142 74.5132C24.4633 75.4475 19.3147 78.1605 15.2436 81.9642C15.2359 81.9714 15.2298 81.9801 15.2255 81.9896C15.2213 81.9991 15.219 82.0094 15.2189 82.0197C15.2187 82.0301 15.2207 82.0403 15.2248 82.0498C15.2288 82.0593 15.2347 82.0678 15.2422 82.075C21.5534 88.2706 29.0229 92.4872 37.6509 94.725C38.388 94.916 39.3299 95.1029 39.9625 95.197C46.3466 96.1465 53.057 96.0109 59.4411 95.143C61.7965 94.8233 63.9979 94.2613 66.1952 93.4737C80.8966 88.211 91.9675 76.768 96.506 62.0805C96.5077 62.0758 96.5077 62.0708 96.5059 62.0663C96.5041 62.0618 96.5006 62.0581 96.4961 62.0558C96.4916 62.0535 96.4863 62.0528 96.4812 62.0538C96.476 62.0547 96.4713 62.0573 96.4679 62.0611Z" stroke="#80AED2" stroke-width="0.30791"/>
<path d="M36.4153 40.0333C39.5022 40.0429 42.5848 40.0928 45.6716 40.0582C46.7081 40.0457 47.8336 39.3896 47.8307 38.2836C47.8293 37.4836 47.1614 36.7763 46.3975 36.5825C46.1885 36.529 45.779 36.4981 45.1689 36.4897C42.839 36.4565 40.2534 36.5216 36.4096 36.4994C36.398 36.4994 36.3865 36.5017 36.3758 36.506C36.3651 36.5103 36.3554 36.5167 36.3472 36.5247C36.3391 36.5327 36.3327 36.5421 36.3283 36.5525C36.324 36.5629 36.3219 36.5741 36.3221 36.5853L36.3362 39.9557C36.3362 39.9761 36.3445 39.9956 36.3593 40.0101C36.3741 40.0246 36.3942 40.0329 36.4153 40.0333Z" stroke="#F5D594" stroke-width="0.30791"/>
<path d="M19.6748 13.5055C19.6738 13.5102 19.6743 13.5151 19.6762 13.5195C19.6781 13.524 19.6814 13.5277 19.6855 13.5303C19.6897 13.5328 19.6945 13.5341 19.6994 13.5339C19.7043 13.5336 19.7091 13.5319 19.713 13.529C29.8067 6.5043 42.3772 2.49571 54.7444 3.40235C65.571 4.19687 75.5984 8.91415 83.8168 15.842C86.3436 17.9718 88.6293 20.1334 90.674 22.3269C90.706 22.361 90.7041 22.3633 90.6684 22.3338C84.5389 17.252 77.838 13.2337 70.5656 10.279C64.0686 7.64071 56.8202 6.14718 49.6312 6.57212C36.2445 7.36387 25.6975 15.5167 18.2825 25.8441C18.1709 26.0005 18.0933 26.2593 18.1017 26.4683C18.3912 33.7381 22.2929 39.9876 27.3807 45.0039C28.0171 45.6323 28.5447 46.1772 28.9636 46.6386C28.9947 46.6728 28.9881 46.6824 28.9439 46.6677C22.3479 44.5305 16.146 40.8195 10.8111 36.4068C10.8073 36.4036 10.8029 36.4012 10.7981 36.3998C10.7933 36.3985 10.7883 36.3981 10.7833 36.3987C10.7784 36.3994 10.7737 36.4011 10.7694 36.4036C10.7652 36.4062 10.7616 36.4096 10.7588 36.4137C6.63405 41.9919 3.42575 48.427 2.13791 55.2122C2.13735 55.2236 2.1322 55.2343 2.12359 55.242C2.11499 55.2496 2.10363 55.2536 2.09202 55.2531C2.08041 55.2525 2.0695 55.2475 2.06169 55.239C2.05387 55.2306 2.0498 55.2195 2.05036 55.2081C1.26806 47.0179 2.30737 38.6118 5.71195 31.0472C5.72222 31.0244 5.72776 30.9998 5.72825 30.9748C5.72873 30.9499 5.72415 30.9251 5.71477 30.9019L3.79855 26.1375C3.78787 26.1102 3.78635 26.0802 3.79421 26.0519C3.80208 26.0236 3.81892 25.9983 3.84232 25.9797C6.36528 23.9856 8.88024 21.991 11.3872 19.9959C11.599 19.827 11.7746 19.6273 11.9139 19.3966C14.8384 14.5672 17.7953 9.62562 21.1759 5.08966C21.1832 5.0798 21.1931 5.07217 21.2047 5.0677C21.2162 5.06322 21.2288 5.06208 21.241 5.06441C21.2532 5.06674 21.2645 5.07244 21.2734 5.08084C21.2824 5.08924 21.2887 5.09999 21.2917 5.11181C21.2973 5.13303 21.2945 5.17041 21.2832 5.22393C20.7231 7.98583 20.187 10.7463 19.6748 13.5055Z" fill="#EBAA28"/>
<path d="M33.44 33.5581C37.297 33.643 42.2558 33.6674 48.3165 33.6314C50.6635 33.6176 51.4952 34.6087 51.5672 36.8344C51.6058 38.0276 51.5903 39.2198 51.5206 40.4111C51.4942 40.8559 51.4095 41.2163 51.2664 41.4922C50.357 43.239 48.5015 42.9165 46.8225 42.9124C43.3393 42.904 39.858 42.9193 36.3786 42.958C36.3646 42.9584 36.3513 42.9641 36.3416 42.9739C36.3318 42.9837 36.3264 42.9969 36.3264 43.0106V47.0621C36.3264 47.0805 36.3189 47.0981 36.3057 47.1111C36.2924 47.124 36.2745 47.1313 36.2558 47.1313H31.7893C31.7657 47.1313 31.7431 47.1222 31.7264 47.1058C31.7097 47.0894 31.7003 47.0673 31.7003 47.0441V33.6328C31.7003 33.614 31.7076 33.596 31.7207 33.5823C31.7339 33.5687 31.7518 33.5605 31.7709 33.5594C32.0684 33.5401 32.6248 33.5396 33.44 33.5581ZM36.4153 40.0333C39.5022 40.0429 42.5848 40.0928 45.6717 40.0582C46.7082 40.0457 47.8336 39.3896 47.8308 38.2837C47.8294 37.4836 47.1614 36.7763 46.3975 36.5825C46.1885 36.529 45.779 36.4981 45.169 36.4898C42.839 36.4565 40.2534 36.5216 36.4097 36.4994C36.3981 36.4994 36.3866 36.5017 36.3758 36.506C36.3651 36.5103 36.3554 36.5167 36.3473 36.5247C36.3391 36.5327 36.3327 36.5421 36.3284 36.5525C36.3241 36.5629 36.3219 36.5741 36.3221 36.5853L36.3363 39.9557C36.3363 39.9761 36.3445 39.9956 36.3593 40.0101C36.3741 40.0246 36.3942 40.0329 36.4153 40.0333Z" fill="#EBAA28"/>
<path d="M63.6478 38.6324L58.2874 47.0289C58.2676 47.0598 58.2401 47.0853 58.2075 47.103C58.1749 47.1206 58.1383 47.1299 58.101 47.1299L53.0951 47.1313C53.0881 47.1315 53.0811 47.1298 53.075 47.1265C53.0688 47.1232 53.0637 47.1183 53.0601 47.1124C53.0565 47.1065 53.0546 47.0997 53.0545 47.0928C53.0545 47.0859 53.0563 47.0791 53.0598 47.0732C55.5366 42.8367 58.0088 38.6015 60.4762 34.3678C60.6315 34.1011 60.7967 33.8409 60.9718 33.5871C60.9836 33.57 60.9996 33.556 61.0183 33.5464C61.037 33.5367 61.0579 33.5317 61.0792 33.5317H65.7631C65.7851 33.5317 65.8068 33.5373 65.8261 33.548C65.8454 33.5587 65.8616 33.574 65.8732 33.5926L74.3176 47.0372C74.3234 47.0466 74.3266 47.0574 74.3268 47.0684C74.3271 47.0794 74.3244 47.0902 74.3191 47.0998C74.3138 47.1094 74.306 47.1173 74.2966 47.1229C74.2872 47.1284 74.2764 47.1313 74.2654 47.1313H68.9248C68.8904 47.1313 68.8566 47.1225 68.8269 47.1057C68.7971 47.0889 68.7725 47.0648 68.7553 47.0358L63.7494 38.6338C63.7443 38.6252 63.7369 38.6179 63.7281 38.6129C63.7193 38.6078 63.7092 38.6051 63.699 38.6049C63.6888 38.6048 63.6787 38.6073 63.6697 38.6121C63.6607 38.6169 63.6532 38.6239 63.6478 38.6324Z" fill="#EBAA28"/>
<path d="M80.0945 39.2027C80.0945 39.2719 80.1232 39.2867 80.1807 39.247L88.4104 33.5747C88.4517 33.5467 88.5005 33.5318 88.5502 33.5317H94.3299C94.3431 33.5316 94.3559 33.5356 94.3665 33.5432C94.3771 33.5509 94.3849 33.5616 94.3887 33.574C94.3925 33.5863 94.3922 33.5995 94.3877 33.6116C94.3832 33.6237 94.3748 33.634 94.3638 33.6411L87.3612 38.4414C87.3462 38.4516 87.3336 38.4647 87.324 38.48C87.3145 38.4952 87.3083 38.5123 87.3058 38.5301C87.3032 38.5479 87.3045 38.566 87.3094 38.5834C87.3143 38.6008 87.3228 38.617 87.3344 38.6311L94.433 47.0413C94.4848 47.1023 94.4702 47.1327 94.3892 47.1327L88.7903 47.1286C88.7657 47.1286 88.7413 47.123 88.719 47.1122C88.6968 47.1014 88.6772 47.0857 88.6618 47.0663L83.4624 40.4222C83.456 40.4139 83.448 40.4069 83.4388 40.4016C83.4296 40.3964 83.4195 40.393 83.4089 40.3917C83.3984 40.3905 83.3877 40.3913 83.3774 40.3941C83.3672 40.397 83.3577 40.4018 83.3494 40.4084L80.1679 42.8943C80.1473 42.9108 80.1306 42.9315 80.1191 42.9549C80.1076 42.9784 80.1016 43.004 80.1016 43.03V47.0621C80.1016 47.0805 80.0941 47.0981 80.0809 47.111C80.0677 47.124 80.0497 47.1313 80.031 47.1313H76.0248C76.0057 47.1313 75.9874 47.1237 75.9739 47.1102C75.9604 47.0967 75.9528 47.0784 75.9528 47.0593C75.9867 41.7644 75.9914 38.2938 75.9669 36.6475C75.9462 35.2126 75.9538 34.2012 75.9895 33.6134C75.991 33.5913 76.001 33.5705 76.0175 33.5553C76.034 33.5401 76.0559 33.5317 76.0785 33.5317H80.0522C80.0698 33.5317 80.0866 33.5386 80.0991 33.5508C80.1115 33.563 80.1185 33.5795 80.1185 33.5968L80.0945 39.2027Z" fill="#EBAA28"/>
<path d="M64.4979 66.6801C53.0062 66.2427 41.4029 63.3083 30.2543 63.2211C21.9469 63.156 13.7751 66.1569 6.85861 70.5808C6.84219 70.5912 6.82372 70.5981 6.8044 70.6011C6.78507 70.6041 6.76532 70.6031 6.74642 70.5981C6.72752 70.5932 6.70989 70.5844 6.69468 70.5723C6.67946 70.5603 6.667 70.5452 6.65809 70.5282C4.52864 66.4956 3.00498 62.2517 2.08711 57.7965C2.08093 57.7666 2.08454 57.7355 2.09744 57.7075C2.11035 57.6794 2.13191 57.6559 2.15913 57.6401C9.20835 53.5719 17.4084 51.7033 25.6297 51.6908C41.8604 51.6673 56.3825 60.4472 72.6528 60.1426C81.0265 59.9862 89.4158 58.3889 97.3505 55.7368C97.361 55.7335 97.3724 55.7337 97.3829 55.7373C97.3933 55.741 97.4023 55.7479 97.4084 55.757C97.4144 55.7661 97.4173 55.7769 97.4165 55.7877C97.4158 55.7986 97.4114 55.8089 97.4041 55.8171C92.7216 60.8389 86.3431 64.1111 79.6045 65.5977C74.6551 66.6898 69.7368 66.8795 64.4979 66.6801Z" fill="#0D9DD9"/>
<path d="M97.1753 59.0921C94.4965 62.392 91.0482 65.2932 87.3838 67.4927C80.7511 71.475 73.5748 73.028 65.8139 72.873C62.5708 72.8084 59.3319 72.6515 56.0972 72.4024C53.0725 72.1698 50.0195 72.1006 46.9863 72.0079C42.4073 71.8685 37.8401 72.0185 33.2847 72.4577C26.1761 73.1443 19.1312 75.7037 14.0137 80.7047C14.007 80.7113 13.999 80.7165 13.9903 80.72C13.9815 80.7236 13.972 80.7253 13.9626 80.7252C13.9531 80.7251 13.9437 80.7231 13.935 80.7193C13.9263 80.7155 13.9185 80.7101 13.912 80.7033C11.5105 78.1075 9.41211 75.2939 7.61686 72.2626C7.59987 72.2342 7.59422 72.2007 7.601 72.1685C7.60779 72.1362 7.62652 72.1076 7.65358 72.0882C13.1721 68.0685 20.0264 65.8649 26.7706 64.9486C30.4831 64.4433 34.4835 64.6302 38.2426 65.0122C45.7069 65.7708 53.0908 67.0691 60.5538 67.8484C65.5371 68.3689 70.8297 68.5793 75.7932 67.7903C83.3367 66.5902 91.6794 63.8011 97.3123 58.5107C97.3252 58.4987 97.3418 58.4911 97.3595 58.4892C97.3773 58.4872 97.3952 58.491 97.4105 58.4999C97.4259 58.5088 97.4378 58.5224 97.4446 58.5386C97.4513 58.5548 97.4524 58.5727 97.4478 58.5896C97.3998 58.7585 97.309 58.926 97.1753 59.0921Z" fill="#005CA5"/>
<path d="M74.7483 73.7879C83.1037 72.7248 91.1019 68.456 96.4678 62.0611C96.4713 62.0573 96.476 62.0547 96.4812 62.0538C96.4863 62.0528 96.4916 62.0535 96.4961 62.0558C96.5006 62.0581 96.5041 62.0618 96.5059 62.0663C96.5077 62.0708 96.5077 62.0758 96.506 62.0805C91.9675 76.768 80.8966 88.211 66.1952 93.4737C63.9979 94.2613 61.7965 94.8233 59.4411 95.143C53.057 96.0109 46.3466 96.1465 39.9625 95.197C39.3299 95.1029 38.388 94.916 37.6509 94.725C29.0229 92.4872 21.5534 88.2706 15.2422 82.075C15.2347 82.0678 15.2288 82.0593 15.2248 82.0498C15.2207 82.0403 15.2187 82.0301 15.2189 82.0197C15.219 82.0094 15.2213 81.9991 15.2255 81.9896C15.2298 81.9801 15.2359 81.9714 15.2436 81.9642C19.3147 78.1605 24.4633 75.4475 30.0142 74.5132C37.8119 73.1982 45.5897 73.601 53.4382 74.0979C54.7585 74.181 56.4658 74.2004 57.9781 74.2931C58.7266 74.3392 59.3314 74.3669 59.7927 74.3762C65.074 74.48 69.7014 74.4288 74.7483 73.7879Z" fill="#005CA5"/>
</g>
<path d="M108.065 21.309H111.738C113.725 21.309 115.155 21.4945 116.029 21.8655C116.911 22.2283 117.604 22.8219 118.107 23.6463C118.618 24.4625 118.873 25.4435 118.873 26.5895C118.873 27.8591 118.54 28.9144 117.872 29.7553C117.212 30.5962 116.314 31.1815 115.176 31.5113C114.508 31.7009 113.292 31.7957 111.528 31.7957V39.5H108.065V21.309ZM111.528 28.4197H112.628C113.494 28.4197 114.096 28.3579 114.434 28.2342C114.772 28.1105 115.036 27.9086 115.225 27.6283C115.423 27.3397 115.522 26.9935 115.522 26.5895C115.522 25.8887 115.25 25.3776 114.706 25.056C114.31 24.817 113.576 24.6974 112.505 24.6974H111.528V28.4197ZM130.869 20.8515C133.441 20.8515 135.65 21.7831 137.497 23.6463C139.352 25.5095 140.28 27.7808 140.28 30.4602C140.28 33.1148 139.365 35.3614 137.534 37.1999C135.712 39.0383 133.499 39.9576 130.894 39.9576C128.165 39.9576 125.898 39.0136 124.092 37.1257C122.287 35.2377 121.384 32.9953 121.384 30.3983C121.384 28.6588 121.804 27.0594 122.645 25.6002C123.486 24.1409 124.64 22.9867 126.108 22.1376C127.583 21.2802 129.171 20.8515 130.869 20.8515ZM130.832 24.2399C129.15 24.2399 127.736 24.8252 126.59 25.9959C125.444 27.1666 124.871 28.6547 124.871 30.4602C124.871 32.4718 125.592 34.0629 127.035 35.2336C128.156 36.1487 129.443 36.6063 130.894 36.6063C132.534 36.6063 133.932 36.0127 135.086 34.8255C136.24 33.6383 136.817 32.175 136.817 30.4354C136.817 28.7041 136.236 27.2408 135.073 26.0454C133.911 24.8417 132.497 24.2399 130.832 24.2399ZM143.779 21.309H147.452C149.464 21.309 150.894 21.4904 151.743 21.8532C152.601 22.2077 153.289 22.8012 153.808 23.6339C154.328 24.4666 154.588 25.4518 154.588 26.5895C154.588 27.7849 154.299 28.7866 153.722 29.5945C153.153 30.3942 152.292 31.0002 151.137 31.4124L155.441 39.5H151.657L147.563 31.7957H147.242V39.5H143.779V21.309ZM147.242 28.4197H148.33C149.435 28.4197 150.193 28.2754 150.606 27.9869C151.026 27.6983 151.236 27.2202 151.236 26.5524C151.236 26.1567 151.133 25.8145 150.927 25.526C150.721 25.2292 150.445 25.0189 150.099 24.8953C149.752 24.7634 149.118 24.6974 148.194 24.6974H147.242V28.4197ZM156.443 21.309H166.496V24.7222H163.182V39.5H159.67V24.7222H156.443V21.309ZM181.509 21.309H185.021L192.021 39.5H188.422L187 35.753H179.58L178.096 39.5H174.497L181.509 21.309ZM183.29 26.1319L180.866 32.377H185.701L183.29 26.1319ZM194.593 21.309H198.068V33.0818C198.068 34.0959 198.154 34.8131 198.328 35.2336C198.509 35.6541 198.802 35.9921 199.206 36.2476C199.618 36.495 200.112 36.6186 200.69 36.6186C201.3 36.6186 201.823 36.4785 202.26 36.1982C202.705 35.9179 203.01 35.5634 203.175 35.1347C203.348 34.6977 203.435 33.8692 203.435 32.649V21.309H206.91V32.1544C206.91 33.9846 206.807 35.2542 206.601 35.9632C206.395 36.6722 205.999 37.3565 205.413 38.016C204.836 38.6756 204.169 39.1661 203.41 39.4876C202.652 39.8009 201.77 39.9576 200.764 39.9576C199.445 39.9576 198.295 39.6566 197.313 39.0548C196.341 38.4447 195.644 37.6863 195.224 36.7794C194.803 35.8643 194.593 34.3226 194.593 32.1544V21.309ZM209.148 21.309H219.202V24.7222H215.888V39.5H212.376V24.7222H209.148V21.309ZM230.171 20.8515C232.743 20.8515 234.953 21.7831 236.799 23.6463C238.654 25.5095 239.582 27.7808 239.582 30.4602C239.582 33.1148 238.667 35.3614 236.836 37.1999C235.015 39.0383 232.801 39.9576 230.196 39.9576C227.467 39.9576 225.2 39.0136 223.394 37.1257C221.589 35.2377 220.686 32.9953 220.686 30.3983C220.686 28.6588 221.106 27.0594 221.947 25.6002C222.788 24.1409 223.942 22.9867 225.41 22.1376C226.886 21.2802 228.473 20.8515 230.171 20.8515ZM230.134 24.2399C228.452 24.2399 227.038 24.8252 225.892 25.9959C224.746 27.1666 224.173 28.6547 224.173 30.4602C224.173 32.4718 224.895 34.0629 226.337 35.2336C227.459 36.1487 228.745 36.6063 230.196 36.6063C231.836 36.6063 233.234 36.0127 234.388 34.8255C235.542 33.6383 236.119 32.175 236.119 30.4354C236.119 28.7041 235.538 27.2408 234.376 26.0454C233.213 24.8417 231.799 24.2399 230.134 24.2399ZM242.859 21.309H246.173L253.976 33.2797V21.309H257.439V39.5H254.112L246.322 27.5664V39.5H242.859V21.309ZM270.189 20.8515C272.761 20.8515 274.97 21.7831 276.817 23.6463C278.672 25.5095 279.599 27.7808 279.599 30.4602C279.599 33.1148 278.684 35.3614 276.854 37.1999C275.032 39.0383 272.819 39.9576 270.213 39.9576C267.485 39.9576 265.217 39.0136 263.412 37.1257C261.606 35.2377 260.704 32.9953 260.704 30.3983C260.704 28.6588 261.124 27.0594 261.965 25.6002C262.806 24.1409 263.96 22.9867 265.428 22.1376C266.903 21.2802 268.49 20.8515 270.189 20.8515ZM270.152 24.2399C268.47 24.2399 267.056 24.8252 265.91 25.9959C264.764 27.1666 264.191 28.6547 264.191 30.4602C264.191 32.4718 264.912 34.0629 266.355 35.2336C267.476 36.1487 268.762 36.6063 270.213 36.6063C271.854 36.6063 273.251 36.0127 274.406 34.8255C275.56 33.6383 276.137 32.175 276.137 30.4354C276.137 28.7041 275.556 27.2408 274.393 26.0454C273.231 24.8417 271.817 24.2399 270.152 24.2399ZM284.62 21.309H288.009L292.213 33.997L296.48 21.309H299.819L302.885 39.5H299.546L297.593 28.0116L293.722 39.5H290.667L286.846 28.0116L284.855 39.5H281.479L284.62 21.309ZM305.68 21.309H315.61V24.6974H309.118V27.9869H315.61V31.3134H309.118V36.0992H315.61V39.5H305.68V21.309ZM325.961 21.309H330.067C332.713 21.309 334.679 21.6388 335.966 22.2983C337.252 22.9496 338.311 24.0131 339.144 25.4889C339.976 26.9646 340.393 28.6876 340.393 30.658C340.393 32.0596 340.158 33.3498 339.688 34.5287C339.226 35.6994 338.583 36.6722 337.759 37.4472C336.942 38.2221 336.056 38.758 335.1 39.0548C334.144 39.3516 332.486 39.5 330.129 39.5H325.961V21.309ZM329.411 24.648V36.1116H331.019C332.602 36.1116 333.748 35.9302 334.457 35.5675C335.174 35.2047 335.759 34.5947 336.213 33.7373C336.666 32.8799 336.893 31.8246 336.893 30.5715C336.893 28.6423 336.353 27.146 335.273 26.0825C334.3 25.1261 332.738 24.648 330.586 24.648H329.411ZM343.695 21.309H353.625V24.6974H347.132V27.9869H353.625V31.3134H347.132V36.0992H353.625V39.5H343.695V21.309ZM363.988 21.309H367.487V27.5664L372.422 21.309H376.589L370.233 29.4214L377.207 39.5H373.102L367.487 31.4247V39.5H363.988V21.309ZM379.903 21.309H383.576C385.588 21.309 387.018 21.4904 387.867 21.8532C388.725 22.2077 389.413 22.8012 389.932 23.6339C390.452 24.4666 390.712 25.4518 390.712 26.5895C390.712 27.7849 390.423 28.7866 389.846 29.5945C389.277 30.3942 388.416 31.0002 387.261 31.4124L391.565 39.5H387.781L383.687 31.7957H383.366V39.5H379.903V21.309ZM383.366 28.4197H384.454C385.559 28.4197 386.317 28.2754 386.73 27.9869C387.15 27.6983 387.36 27.2202 387.36 26.5524C387.36 26.1567 387.257 25.8145 387.051 25.526C386.845 25.2292 386.569 25.0189 386.223 24.8953C385.876 24.7634 385.241 24.6974 384.318 24.6974H383.366V28.4197ZM394.112 21.309H397.55V39.5H394.112V21.309ZM401.458 39.5V21.309H404.315C405.972 21.309 407.184 21.4162 407.95 21.6306C409.039 21.9191 409.904 22.455 410.547 23.2382C411.19 24.0214 411.512 24.9448 411.512 26.0083C411.512 26.7008 411.363 27.3315 411.067 27.9003C410.778 28.4609 410.304 28.9886 409.645 29.4832C410.749 30.0026 411.557 30.6539 412.068 31.4371C412.579 32.2121 412.835 33.1313 412.835 34.1948C412.835 35.2171 412.571 36.1487 412.044 36.9896C411.516 37.8305 410.836 38.4612 410.003 38.8817C409.17 39.2939 408.02 39.5 406.553 39.5H401.458ZM404.921 24.6109V28.4444H405.675C406.516 28.4444 407.138 28.2672 407.542 27.9127C407.954 27.5582 408.161 27.0759 408.161 26.4658C408.161 25.897 407.967 25.4477 407.579 25.1179C407.192 24.7799 406.602 24.6109 405.811 24.6109H404.921ZM404.921 31.536V36.1982H405.786C407.221 36.1982 408.185 36.0168 408.68 35.6541C409.183 35.2913 409.434 34.7637 409.434 34.0712C409.434 33.2879 409.142 32.6696 408.556 32.2162C407.971 31.7628 406.998 31.536 405.638 31.536H404.921ZM415.902 21.309H419.34V39.5H415.902V21.309Z" fill="#0B5DA7"/>
<path d="M108.026 60.6576H111.628C113.577 60.6576 114.98 60.8395 115.837 61.2034C116.702 61.5592 117.381 62.1414 117.875 62.95C118.376 63.7506 118.627 64.7128 118.627 65.8368C118.627 67.0821 118.299 68.1172 117.644 68.942C116.997 69.7668 116.116 70.3409 115 70.6644C114.345 70.8504 113.152 70.9433 111.422 70.9433V78.5H108.026V60.6576ZM111.422 67.632H112.501C113.35 67.632 113.941 67.5714 114.272 67.4501C114.604 67.3288 114.863 67.1306 115.049 66.8557C115.243 66.5727 115.34 66.2331 115.34 65.8368C115.34 65.1495 115.073 64.6482 114.539 64.3328C114.151 64.0983 113.431 63.981 112.38 63.981H111.422V67.632ZM130.392 60.2088C132.915 60.2088 135.082 61.1225 136.894 62.95C138.713 64.7775 139.623 67.0053 139.623 69.6334C139.623 72.2372 138.725 74.4407 136.93 76.2439C135.143 78.0472 132.972 78.9488 130.417 78.9488C127.74 78.9488 125.516 78.0229 123.745 76.1711C121.975 74.3194 121.089 72.1199 121.089 69.5727C121.089 67.8665 121.501 66.2978 122.326 64.8665C123.151 63.4352 124.283 62.3031 125.723 61.4702C127.17 60.6293 128.727 60.2088 130.392 60.2088ZM130.356 63.5322C128.706 63.5322 127.32 64.1064 126.196 65.2546C125.072 66.4029 124.51 67.8625 124.51 69.6334C124.51 71.6064 125.217 73.1671 126.632 74.3153C127.732 75.2129 128.993 75.6617 130.417 75.6617C132.026 75.6617 133.396 75.0795 134.528 73.9151C135.661 72.7506 136.227 71.3153 136.227 69.6091C136.227 67.911 135.657 66.4757 134.516 65.3031C133.376 64.1225 131.989 63.5322 130.356 63.5322ZM143.056 60.6576H146.658C148.631 60.6576 150.034 60.8355 150.867 61.1913C151.708 61.539 152.383 62.1212 152.893 62.9379C153.402 63.7546 153.657 64.7209 153.657 65.8368C153.657 67.0094 153.374 67.9918 152.808 68.7843C152.25 69.5687 151.405 70.163 150.273 70.5673L154.494 78.5H150.782L146.767 70.9433H146.452V78.5H143.056V60.6576ZM146.452 67.632H147.519C148.603 67.632 149.347 67.4905 149.751 67.2075C150.163 66.9244 150.37 66.4554 150.37 65.8005C150.37 65.4123 150.269 65.0767 150.066 64.7937C149.864 64.5026 149.593 64.2964 149.254 64.1751C148.914 64.0457 148.291 63.981 147.386 63.981H146.452V67.632ZM155.476 60.6576H165.337V64.0053H162.087V78.5H158.642V64.0053H155.476V60.6576ZM180.063 60.6576H183.507L190.373 78.5H186.843L185.448 74.8248H178.17L176.715 78.5H173.185L180.063 60.6576ZM181.809 65.388L179.432 71.5134H184.174L181.809 65.388ZM192.895 60.6576H196.304V72.2048C196.304 73.1994 196.389 73.9029 196.559 74.3153C196.736 74.7277 197.024 75.0593 197.42 75.31C197.824 75.5525 198.309 75.6738 198.875 75.6738C199.474 75.6738 199.987 75.5364 200.416 75.2614C200.852 74.9865 201.152 74.6388 201.313 74.2183C201.483 73.7897 201.568 72.9771 201.568 71.7803V60.6576H204.976V71.2951C204.976 73.0903 204.875 74.3356 204.673 75.031C204.471 75.7264 204.083 76.3976 203.509 77.0445C202.943 77.6914 202.288 78.1725 201.544 78.4879C200.8 78.7952 199.935 78.9488 198.948 78.9488C197.654 78.9488 196.526 78.6536 195.564 78.0633C194.61 77.465 193.926 76.721 193.514 75.8315C193.102 74.9339 192.895 73.4218 192.895 71.2951V60.6576ZM207.172 60.6576H217.033V64.0053H213.782V78.5H210.338V64.0053H207.172V60.6576ZM219.35 60.6576H222.795V67.3894H228.762V60.6576H232.195V78.5H228.762V70.6765H222.795V78.5H219.35V60.6576ZM244.7 60.2088C247.223 60.2088 249.39 61.1225 251.202 62.95C253.021 64.7775 253.931 67.0053 253.931 69.6334C253.931 72.2372 253.033 74.4407 251.238 76.2439C249.451 78.0472 247.28 78.9488 244.725 78.9488C242.048 78.9488 239.824 78.0229 238.053 76.1711C236.283 74.3194 235.397 72.1199 235.397 69.5727C235.397 67.8665 235.81 66.2978 236.634 64.8665C237.459 63.4352 238.591 62.3031 240.031 61.4702C241.478 60.6293 243.035 60.2088 244.7 60.2088ZM244.664 63.5322C243.014 63.5322 241.628 64.1064 240.504 65.2546C239.38 66.4029 238.818 67.8625 238.818 69.6334C238.818 71.6064 239.525 73.1671 240.94 74.3153C242.04 75.2129 243.301 75.6617 244.725 75.6617C246.334 75.6617 247.704 75.0795 248.837 73.9151C249.969 72.7506 250.535 71.3153 250.535 69.6091C250.535 67.911 249.965 66.4757 248.824 65.3031C247.684 64.1225 246.297 63.5322 244.664 63.5322ZM257.364 60.6576H260.966C262.939 60.6576 264.342 60.8355 265.175 61.1913C266.016 61.539 266.691 62.1212 267.201 62.9379C267.71 63.7546 267.965 64.7209 267.965 65.8368C267.965 67.0094 267.682 67.9918 267.116 68.7843C266.558 69.5687 265.713 70.163 264.581 70.5673L268.802 78.5H265.09L261.075 70.9433H260.76V78.5H257.364V60.6576ZM260.76 67.632H261.827C262.911 67.632 263.655 67.4905 264.059 67.2075C264.471 66.9244 264.678 66.4554 264.678 65.8005C264.678 65.4123 264.577 65.0767 264.374 64.7937C264.172 64.5026 263.901 64.2964 263.562 64.1751C263.222 64.0457 262.599 63.981 261.694 63.981H260.76V67.632ZM271.3 60.6576H274.672V78.5H271.3V60.6576ZM276.746 60.6576H286.608V64.0053H283.357V78.5H279.912V64.0053H276.746V60.6576ZM287.663 60.6576H291.314L294.637 67.0619L297.937 60.6576H301.539L296.323 70.7735V78.5H292.903V70.7735L287.663 60.6576ZM319.733 60.2088C322.256 60.2088 324.423 61.1225 326.235 62.95C328.054 64.7775 328.964 67.0053 328.964 69.6334C328.964 72.2372 328.066 74.4407 326.271 76.2439C324.484 78.0472 322.313 78.9488 319.758 78.9488C317.081 78.9488 314.857 78.0229 313.086 76.1711C311.315 74.3194 310.43 72.1199 310.43 69.5727C310.43 67.8665 310.842 66.2978 311.667 64.8665C312.492 63.4352 313.624 62.3031 315.063 61.4702C316.511 60.6293 318.068 60.2088 319.733 60.2088ZM319.697 63.5322C318.047 63.5322 316.66 64.1064 315.536 65.2546C314.412 66.4029 313.851 67.8625 313.851 69.6334C313.851 71.6064 314.558 73.1671 315.973 74.3153C317.073 75.2129 318.334 75.6617 319.758 75.6617C321.367 75.6617 322.737 75.0795 323.869 73.9151C325.002 72.7506 325.568 71.3153 325.568 69.6091C325.568 67.911 324.997 66.4757 323.857 65.3031C322.717 64.1225 321.33 63.5322 319.697 63.5322ZM332.215 60.6576H341.069V63.9689H335.574V67.2075H341.069V70.4703H335.574V78.5H332.215V60.6576ZM351.088 60.6576H354.521V66.7951L359.36 60.6576H363.448L357.213 68.6145L364.054 78.5H360.027L354.521 70.5795V78.5H351.088V60.6576ZM366.699 60.6576H370.301C372.274 60.6576 373.677 60.8355 374.51 61.1913C375.351 61.539 376.026 62.1212 376.536 62.9379C377.045 63.7546 377.3 64.7209 377.3 65.8368C377.3 67.0094 377.017 67.9918 376.451 68.7843C375.893 69.5687 375.048 70.163 373.916 70.5673L378.137 78.5H374.425L370.41 70.9433H370.095V78.5H366.699V60.6576ZM370.095 67.632H371.162C372.246 67.632 372.99 67.4905 373.394 67.2075C373.806 66.9244 374.013 66.4554 374.013 65.8005C374.013 65.4123 373.912 65.0767 373.709 64.7937C373.507 64.5026 373.236 64.2964 372.897 64.1751C372.557 64.0457 371.934 63.981 371.029 63.981H370.095V67.632ZM380.635 60.6576H384.007V78.5H380.635V60.6576ZM387.84 78.5V60.6576H390.642C392.267 60.6576 393.456 60.7627 394.208 60.9729C395.276 61.2559 396.125 61.7816 396.755 62.5498C397.386 63.318 397.701 64.2236 397.701 65.2668C397.701 65.946 397.556 66.5646 397.265 67.1226C396.982 67.6724 396.517 68.19 395.87 68.6751C396.954 69.1846 397.746 69.8234 398.247 70.5916C398.749 71.3517 398.999 72.2533 398.999 73.2965C398.999 74.2992 398.741 75.2129 398.223 76.0377C397.706 76.8625 397.038 77.4811 396.222 77.8935C395.405 78.2978 394.277 78.5 392.838 78.5H387.84ZM391.236 63.8961V67.6563H391.976C392.801 67.6563 393.412 67.4824 393.808 67.1347C394.212 66.787 394.414 66.3139 394.414 65.7155C394.414 65.1576 394.224 64.7169 393.844 64.3934C393.464 64.0619 392.886 63.8961 392.11 63.8961H391.236ZM391.236 70.6886V75.2614H392.086C393.493 75.2614 394.439 75.0835 394.924 74.7277C395.417 74.3719 395.664 73.8544 395.664 73.1752C395.664 72.407 395.377 71.8005 394.803 71.3557C394.228 70.911 393.274 70.6886 391.94 70.6886H391.236ZM402.007 60.6576H405.379V78.5H402.007V60.6576Z" fill="#149FDA"/>
<defs>
<clipPath id="clip0_73_1695">
<rect width="98" height="98" fill="white"/>
</clipPath>
</defs>
</svg>
