<svg width="1266" height="906" viewBox="0 0 1266 906" fill="none" xmlns="http://www.w3.org/2000/svg">
<path d="M150.795 192.818C297.001 25.582 503.111 -90.8896 728.419 -101.194C922.068 -110.039 1106.8 -37.119 1264.76 70.0329C1265.54 70.5692 1265.51 70.6199 1264.66 70.1851C1187.93 31.3332 1107.81 0.93449 1024.33 -21.0111C883.364 -58.069 728.015 -70.0627 586.828 -27.3057C487.386 2.80738 402.205 55.9744 331.287 132.195C262.053 206.617 210.031 297.273 173.302 391.669C173.1 392.183 173.067 392.699 173.202 393.219C204.435 519.83 306.62 609.572 415.341 671.424C415.481 671.511 415.587 671.642 415.644 671.797C415.701 671.951 415.705 672.12 415.655 672.277C415.605 672.435 415.505 672.57 415.369 672.664C415.233 672.757 415.07 672.803 414.906 672.794C305.667 663.088 198.329 628.711 100.849 579.442C100.719 579.376 100.577 579.338 100.432 579.329C100.287 579.32 100.142 579.341 100.006 579.39C99.8695 579.439 99.7456 579.516 99.6415 579.615C99.5374 579.715 99.4554 579.835 99.4008 579.967C57.4255 680.181 31.2496 794.32 38.2059 903.256C38.3844 906.08 38.0072 906.155 37.0743 903.478C-5.64141 780.703 -21.5913 643.487 3.00545 514.614C3.05032 514.372 3.04658 514.123 2.99445 513.881C2.94231 513.64 2.84282 513.412 2.70174 513.21L-44.6872 445.296C-45.0999 444.702 -45.0877 444.12 -44.6506 443.55C-13.3063 402.805 18.0441 362.086 49.4007 321.392C51.2576 318.978 52.6371 316.311 53.5393 313.389C74.9619 243.628 97.8447 174.361 122.188 105.589C128.61 87.4627 135.292 70.9628 142.671 54.0526C142.703 53.9744 142.761 53.9097 142.835 53.8697C142.91 53.8298 142.996 53.8171 143.079 53.8338C143.162 53.8505 143.236 53.8956 143.289 53.9613C143.342 54.0269 143.371 54.1091 143.37 54.1936L149.959 192.514C149.997 193.306 150.276 193.407 150.795 192.818Z" fill="#EBAB30"/>
</svg>
